/* XPM */
static char *c212beaab3814f29a5740e66f2a8d0909731KR5w4EI6hqKB[] = {
/* columns rows colors chars-per-pixel */
"32 32 44 1 ",
"  c None",
". c #301807",
"X c #420000",
"o c #660000",
"O c #6C1200",
"+ c #51201A",
"@ c #54331A",
"# c #7B4943",
"$ c #961715",
"% c #A20000",
"& c #C43A16",
"* c #9E4E0F",
"= c #B44521",
"- c #8A6431",
"; c #A87136",
": c #D6503D",
"> c #D07B21",
", c #D87C2B",
"< c #845F44",
"1 c #B74E4A",
"2 c #AB7051",
"3 c #DD594D",
"4 c #C67548",
"5 c #E4A039",
"6 c #AE8A5A",
"7 c #F6B34D",
"8 c #D29D63",
"9 c #CCA777",
"0 c #CFA874",
"q c #FFE155",
"w c #E48283",
"e c #EDAE8B",
"r c #F0B7AC",
"t c #F6B2B2",
"y c #E7CD9D",
"u c #E7CFA3",
"i c #F9DDBB",
"p c #F9E9BB",
"a c #F4DCC0",
"s c #F9F0C7",
"d c #FAECD0",
"f c #FCF4DF",
"g c #FFFBF3",
"h c white",
/* pixels */
"                                ",
"                                ",
"                 XOXX           ",
"              6XO5X$&X          ",
"           <66X5aX&7qqXO        ",
"        <<66hX5ao7q3:$X5O       ",
"      @-u0hhrOa5hq7w:Xa>O@      ",
"     @ug0f44X5ao&:wqqX5>Ou@     ",
"    @ug0f4ffOa5$::w:7=>>Ogu@    ",
"   <ug0frffX5a,qhqq7Xa>*O6gu<   ",
"   6g0hrfffOa5q::3:$=5>Ors6g6   ",
"  .u0frhffO5a$&qw:&Xa>>Oh4p6u.  ",
"  66f4hhhO5a$&::7&$=a>>Ohf4h66  ",
" .6h4fhhO5a7qhq7$$Xa5>*Ohffrh6. ",
" +srffhO5a7&&:t&$X5a>>Ouhffhrs+ ",
" 2seffO5ao&777:$X5a5>>Ouhffhrs2 ",
"+sehffO5a$&&&:7o5aa>>*uuhffhhes+",
"+sehfO>ao1&&3&$=aa5>>Oufhffhhes+",
"+ssrfO>ao3&3&&o5a5>>*uuhhffrres+",
"++#s4O*aow3t3woa5>>>Oufhhfrhh+++",
" .d;fO*aX3w3t3Xa>>>Ouuhhhrf2+d. ",
"  .h;fO5X&3w3$X5>>*Oufhhrs2hh.  ",
"  .df8O>5X%&$X5>>*Oufhhrh2ghd.  ",
"   <ff8O>5XXX5>>*Ouihhrh2dhh<   ",
"   .dfg8OO55>***Ouif44f2dghd.   ",
"    <dgh8fOOOOOO9f44ff8dhgd<    ",
"     .dgg;hrhhhhrrhh8;hhhd.     ",
"      .<dh;y4yy4yy8;hhhd<.      ",
"        ..<;y44y8;hhd<..        ",
"           .+yy++....           ",
"             ++                 ",
"                                "
};
