/* XPM */
static char *eb414c78fe844df3f6bd1ba6d48679e2pzOX2ThBmvvlzQCC[] = {
/* columns rows colors chars-per-pixel */
"32 32 63 1 ",
"  c None",
". c black",
"X c #370F03",
"o c #301807",
"O c #570D00",
"+ c #461505",
"@ c #571C08",
"# c #571F0D",
"$ c #51201A",
"% c #54331A",
"& c #73250E",
"* c #73260E",
"= c #7B4943",
"- c #813600",
"; c #943315",
": c #8D4700",
"> c #934502",
", c #994100",
"< c #9D500B",
"1 c #B86804",
"2 c #A87136",
"3 c #C36A1E",
"4 c #C97916",
"5 c #DB781E",
"6 c #845F44",
"7 c #AB7051",
"8 c #C67548",
"9 c #DB8214",
"0 c #D5841F",
"q c #EB8F1D",
"w c #E18E27",
"e c #EC9623",
"r c #ED982B",
"t c #EB9D36",
"y c #EC9F35",
"u c #EF9E38",
"i c #AE8A5A",
"p c #E79041",
"a c #D5A643",
"s c #F1A842",
"d c #F5B150",
"f c #F9BF5E",
"g c #D29D63",
"h c #C9A663",
"j c #CFA874",
"k c #D2AA74",
"l c #F2C758",
"z c #FAC866",
"x c #FBC968",
"c c #FFD979",
"v c #FFE37F",
"b c #EDAE8B",
"n c #F0B7AC",
"m c #E7CD9D",
"M c #FFE49A",
"N c #F3DBAF",
"B c #F9E9BB",
"V c #FFF5B5",
"C c #F9F0C7",
"Z c #FAECD0",
"A c #FCF4DF",
"S c #FFFBF3",
"D c white",
/* pixels */
"                                ",
"                                ",
"           ----------           ",
"         -1eyddddddy51-         ",
"        -eydddddddcddy5-        ",
"       -eydfdddVdddfddy5-       ",
"      %-yddddddddddddVdy-%      ",
"     %-edxcxfddddcdsfddd5-%     ",
"    %M-dxcccccffdfdycddy5-M%    ",
"   6MDOecxcxccccfcsplsdxeODM6   ",
"   iDjO1edVdVxccxcupxpxe1OiDi   ",
"  oMjD3ll3>>>300www041>aa.DiMo  ",
"  iiDX3v3;&#3llllllllla;;&.Dii  ",
" oiDnX&;&;;&;&33MSvvv3&&+&.nDio ",
" $CnDDX@@&;&;;;;3lll3;;&@+.DnC$ ",
" 7CbDDOXX@+@&@&&;3l&&@+@@XBDnC7 ",
"$CbDDD<r1X+@@+@@+++@+X+@XONDDbC$",
"$CbDDD1zdz1:XX@@XXX@X+:19:mDDbC$",
"$CCnDDB1rzududdduudyt991:hmnnbC$",
"$$=DnDDm1ddVcczzdddyt99:hmnDD$$$",
" ok2DnDBm:1drddduuduq1:hmnD7$ko ",
"  ok2DnDDBm,::::::::;hmmnD7kko  ",
"  oZZgDnDDDDDDDDDAABVBBnD7mDmo  ",
"   6DDgDnDDDDDDDDDDDSDnD7mDD6   ",
"   omDSgAnAAAAAAAAAAnnA7mSDmo   ",
"    6ZSDgAnAAAAAAAnnAAgZDSZ6    ",
"     oZSS2DnDDDDnnDDg2DDDZo     ",
"      o6mD2m8mm8mmg2DDDm6o      ",
"        oo62m88mg2DDm6oo        ",
"           o$mm$$oooo           ",
"             $$                 ",
"                                "
};
