/* XPM */
static char *_8cbb47839994b44cc492dbe114dce82HBkmscAMXoMaOeax[] = {
/* columns rows colors chars-per-pixel */
"32 32 17 1 ",
"  c None",
". c black",
"X c #27120D",
"o c #452203",
"O c #69390C",
"+ c #512E25",
"@ c #81321E",
"# c #8D4A0D",
"$ c #995313",
"% c #9F4F3B",
"& c #B76F2E",
"* c #C99148",
"= c #CF9058",
"- c #D9A460",
"; c #E7BB74",
": c #F3D29D",
"> c #FFEAC7",
/* pixels */
"                                ",
"                                ",
"                                ",
"                                ",
"                                ",
"                                ",
"                                ",
"                 .......        ",
"               .o&=---=&.       ",
"             .@=-*-;-;%&=.      ",
"            .=-:;&@;;;+@-=.     ",
"           .#-@+;;;;=--;:-.     ",
"           +#=-;=:-=-@;-=&.     ",
"        .+..+OOO=-=:%&-&&$.     ",
"      .@&-;;--=&@O=-==&$&.      ",
"     X&-;-:;;@+;-&@&$&&&.       ",
"    X&-%&;-:;;;;-;=O$&@.        ",
"    X-;@+;;;*;;*;;-+@+          ",
"    X=;;--;;@+*-%@;=.           ",
"    X&-:;@;:&+;-&;-$+           ",
"    X$=%:;;-:;;--=&&+           ",
"     X$&=->=->:-=$&&.           ",
"      +$&&=$&&=&&&$.            ",
"       ..&&$&&$&&..             ",
"         ........               ",
"                                ",
"                                ",
"                                ",
"                                ",
"                                ",
"                                ",
"                                "
};
