/* XPM */
static char *e76df7733630420492481bcc390b17dc9TqG0cKgnJLUQWP8[] = {
/* columns rows colors chars-per-pixel */
"32 32 25 1 ",
"  c None",
". c #660400",
"X c #5A2A15",
"o c #963306",
"O c #A82D01",
"+ c #B44D28",
"@ c #F45C19",
"# c #CC4D20",
"$ c #C6552E",
"% c #EF9C10",
"& c #FFA90A",
"* c #CC8B2D",
"= c #C68638",
"- c #E4852C",
"; c #FFB222",
": c #FBCA30",
"> c #BF9857",
", c #D89C53",
"< c #FC9D44",
"1 c #F0B15D",
"2 c #EFC692",
"3 c #FADCAA",
"4 c #F0DEB5",
"5 c #F9EED8",
"6 c #FFF6DC",
/* pixels */
"                                ",
"                                ",
"                                ",
"                                ",
"                                ",
"                                ",
"               .XX              ",
"              .22,oX            ",
"              .=242,oX          ",
"              ..o=2452oX        ",
"             .1;$.o=242,oX      ",
"            .3:331$.o=222,X     ",
"            .@@13;31$.o=1*>.    ",
"           .OO#@::33:1$.o>>.    ",
"           .OOOO<&<@#O-1$..     ",
"          .#@###3:#OOOO61.      ",
"          +-@@#<:33#@@<3.       ",
"         .-:<3%33:<;:<..        ",
"         +:;33;:6663+.          ",
"        .-@#O1:;:3+.            ",
"       .;@#OOO63..              ",
"      .33OOO#@..                ",
"     .::;;@@..                  ",
"     .3663..                    ",
"     .33..                      ",
"      ..                        ",
"                                ",
"                                ",
"                                ",
"                                ",
"                                ",
"                                "
};
